<mxfile host="app.diagrams.net" modified="2023-04-06T06:00:29.601Z" agent="Mozilla/5.0 (Windows NT 10.0; Win64; x64) AppleWebKit/537.36 (KHTML, like Gecko) Chrome/111.0.0.0 Safari/537.36" etag="dnS6oTXMSPfPTmx9bxoV" version="21.1.4" type="github" pages="7">
  <diagram name="scankey" id="wuZutpG0k2PEqG1eCoAN">
    <mxGraphModel dx="1662" dy="1368" grid="0" gridSize="10" guides="1" tooltips="1" connect="1" arrows="1" fold="1" page="0" pageScale="1" pageWidth="850" pageHeight="1100" math="0" shadow="0">
      <root>
        <mxCell id="0" />
        <mxCell id="1" parent="0" />
        <mxCell id="orQYZJB-zxShpe2GoF-T-1" value="scankey" style="whiteSpace=wrap;html=1;aspect=fixed;fontSize=16;" vertex="1" parent="1">
          <mxGeometry x="-396" y="-115" width="113" height="113" as="geometry" />
        </mxCell>
        <mxCell id="orQYZJB-zxShpe2GoF-T-50" value="" style="endArrow=none;html=1;rounded=0;fontSize=12;startSize=8;endSize=8;curved=1;" edge="1" parent="1">
          <mxGeometry width="50" height="50" relative="1" as="geometry">
            <mxPoint x="220.6088840736728" y="513.1764705882354" as="sourcePoint" />
            <mxPoint x="223.0574214517875" y="274.08556149732624" as="targetPoint" />
          </mxGeometry>
        </mxCell>
        <mxCell id="orQYZJB-zxShpe2GoF-T-20" style="edgeStyle=none;curved=1;rounded=0;orthogonalLoop=1;jettySize=auto;html=1;fontSize=12;startSize=8;endSize=8;entryX=0.5;entryY=1;entryDx=0;entryDy=0;entryPerimeter=0;movable=1;resizable=1;rotatable=1;deletable=1;editable=1;locked=0;connectable=1;" edge="1" parent="1" target="orQYZJB-zxShpe2GoF-T-7">
          <mxGeometry relative="1" as="geometry">
            <mxPoint x="373.6424702058504" y="604.5935828877006" as="sourcePoint" />
          </mxGeometry>
        </mxCell>
        <mxCell id="orQYZJB-zxShpe2GoF-T-44" style="edgeStyle=none;curved=1;rounded=0;orthogonalLoop=1;jettySize=auto;html=1;fontSize=12;startSize=8;endSize=8;entryX=0;entryY=0.3;entryDx=0;entryDy=0;entryPerimeter=0;" edge="1" parent="1" target="orQYZJB-zxShpe2GoF-T-7">
          <mxGeometry relative="1" as="geometry">
            <mxPoint x="269.5796316359696" y="435.82352941176475" as="sourcePoint" />
          </mxGeometry>
        </mxCell>
        <mxCell id="orQYZJB-zxShpe2GoF-T-49" style="edgeStyle=none;curved=1;rounded=0;orthogonalLoop=1;jettySize=auto;html=1;exitX=0;exitY=0.7;exitDx=0;exitDy=0;exitPerimeter=0;fontSize=12;startSize=8;endSize=8;entryX=0;entryY=0.7;entryDx=0;entryDy=0;entryPerimeter=0;" edge="1" parent="1" target="orQYZJB-zxShpe2GoF-T-7">
          <mxGeometry relative="1" as="geometry">
            <mxPoint x="219.38461538461536" y="513.1764705882354" as="sourcePoint" />
          </mxGeometry>
        </mxCell>
        <mxCell id="orQYZJB-zxShpe2GoF-T-62" style="edgeStyle=none;curved=1;rounded=0;orthogonalLoop=1;jettySize=auto;html=1;exitX=1;exitY=0.3;exitDx=0;exitDy=0;exitPerimeter=0;fontSize=12;startSize=8;endSize=8;" edge="1" parent="1" source="orQYZJB-zxShpe2GoF-T-7">
          <mxGeometry relative="1" as="geometry">
            <mxPoint x="577.8504725959422" y="435.82352941176475" as="targetPoint" />
          </mxGeometry>
        </mxCell>
        <mxCell id="orQYZJB-zxShpe2GoF-T-7" value="" style="verticalLabelPosition=bottom;shadow=0;dashed=0;align=center;html=1;verticalAlign=top;shape=stencil(zVbbjsIgEP2aPq5pS2rr46ar77r7A1hRiRQaynr5+6WixqnCIt2HTdSEM+05h2GYMUJlu8UNidIYtw2pVIQ+ojTdY0nxkmk41ZGtAZM4NmuOa2Ig/Y2/TufXF5/6Z8Zo8zZjojEPtkqKHTnQlbpQUL4lkioTPQBaNI3id412H1RWgnPthgregshdXJNjylXfT8fcaJGaKCINerF9BKvTZTVCZh2ls1eUpgFKeZDS3EMp+ZM9zTnZBIiFbWvhk8BRBrSS50qo1IitYlC5xNVuI8U3Xz31J7uqvxV5EYPiHENDvSNNYochiywq10ISh581ZcxcHEdSG9xdqYfANVyLPbHVIbKYhgyMcmLdtx+Fy0Q+3IQfBTRRDE/FrQsOyEUxPBl9GyHZyOFNHmev28gnARTQRe9YQ1ygkFy4iytgIxmkmAS46FHcDtnWBjRu6QR6rv/WQxQ5do0PM7rhRq8ivOvE19kNZur+7rmlUErUsDPCTo2c+fPWnntp5/9H21033toLL+1etRQTxzR6GDpn1Pz3OwM/);fontSize=16;" vertex="1" parent="1">
          <mxGeometry x="289.16793066088826" y="378.1604278074867" width="168.94907908992414" height="192.67914438502677" as="geometry" />
        </mxCell>
        <mxCell id="orQYZJB-zxShpe2GoF-T-25" style="edgeStyle=none;curved=1;rounded=0;orthogonalLoop=1;jettySize=auto;html=1;fontSize=12;startSize=8;endSize=8;entryX=0.5;entryY=1;entryDx=0;entryDy=0;entryPerimeter=0;movable=1;resizable=1;rotatable=1;deletable=1;editable=1;locked=0;connectable=1;" edge="1" parent="1" target="orQYZJB-zxShpe2GoF-T-26">
          <mxGeometry relative="1" as="geometry">
            <mxPoint x="373.6424702058504" y="369.72192513368987" as="sourcePoint" />
          </mxGeometry>
        </mxCell>
        <mxCell id="orQYZJB-zxShpe2GoF-T-42" style="edgeStyle=none;curved=1;rounded=0;orthogonalLoop=1;jettySize=auto;html=1;fontSize=12;startSize=8;endSize=8;entryX=0;entryY=0.7;entryDx=0;entryDy=0;entryPerimeter=0;" edge="1" parent="1" target="orQYZJB-zxShpe2GoF-T-26">
          <mxGeometry relative="1" as="geometry">
            <mxPoint x="107.97616468038996" y="275.4919786096257" as="sourcePoint" />
          </mxGeometry>
        </mxCell>
        <mxCell id="orQYZJB-zxShpe2GoF-T-48" style="edgeStyle=none;curved=1;rounded=0;orthogonalLoop=1;jettySize=auto;html=1;exitX=1;exitY=0.3;exitDx=0;exitDy=0;exitPerimeter=0;fontSize=12;startSize=8;endSize=8;endArrow=none;endFill=0;" edge="1" parent="1" source="orQYZJB-zxShpe2GoF-T-26">
          <mxGeometry relative="1" as="geometry">
            <mxPoint x="482.602383531961" y="198.1390374331551" as="targetPoint" />
          </mxGeometry>
        </mxCell>
        <mxCell id="orQYZJB-zxShpe2GoF-T-26" value="" style="verticalLabelPosition=bottom;shadow=0;dashed=0;align=center;html=1;verticalAlign=top;shape=stencil(zVbbjsIgEP2aPq5pS2rr46ar77r7A1hRiRQaynr5+6WixqnCIt2HTdSEM+05h2GYMUJlu8UNidIYtw2pVIQ+ojTdY0nxkmk41ZGtAZM4NmuOa2Ig/Y2/TufXF5/6Z8Zo8zZjojEPtkqKHTnQlbpQUL4lkioTPQBaNI3id412H1RWgnPthgregshdXJNjylXfT8fcaJGaKCINerF9BKvTZTVCZh2ls1eUpgFKeZDS3EMp+ZM9zTnZBIiFbWvhk8BRBrSS50qo1IitYlC5xNVuI8U3Xz31J7uqvxV5EYPiHENDvSNNYochiywq10ISh581ZcxcHEdSG9xdqYfANVyLPbHVIbKYhgyMcmLdtx+Fy0Q+3IQfBTRRDE/FrQsOyEUxPBl9GyHZyOFNHmev28gnARTQRe9YQ1ygkFy4iytgIxmkmAS46FHcDtnWBjRu6QR6rv/WQxQ5do0PM7rhRq8ivOvE19kNZur+7rmlUErUsDPCTo2c+fPWnntp5/9H21033toLL+1etRQTxzR6GDpn1Pz3OwM/);fontSize=16;" vertex="1" parent="1">
          <mxGeometry x="289.16793066088826" y="140.475935828877" width="168.94907908992414" height="192.67914438502677" as="geometry" />
        </mxCell>
        <mxCell id="orQYZJB-zxShpe2GoF-T-45" value="" style="endArrow=none;html=1;rounded=0;fontSize=12;startSize=8;endSize=8;curved=1;" edge="1" parent="1">
          <mxGeometry width="50" height="50" relative="1" as="geometry">
            <mxPoint x="270.8039003250269" y="437.2299465240642" as="sourcePoint" />
            <mxPoint x="270.8039003250269" y="385.192513368984" as="targetPoint" />
          </mxGeometry>
        </mxCell>
        <mxCell id="orQYZJB-zxShpe2GoF-T-46" value="" style="endArrow=none;html=1;rounded=0;fontSize=12;startSize=8;endSize=8;curved=1;" edge="1" parent="1">
          <mxGeometry width="50" height="50" relative="1" as="geometry">
            <mxPoint x="269.5796316359696" y="385.192513368984" as="sourcePoint" />
            <mxPoint x="478.9295774647886" y="385.192513368984" as="targetPoint" />
          </mxGeometry>
        </mxCell>
        <mxCell id="orQYZJB-zxShpe2GoF-T-47" value="" style="endArrow=none;html=1;rounded=0;fontSize=12;startSize=8;endSize=8;curved=1;" edge="1" parent="1">
          <mxGeometry width="50" height="50" relative="1" as="geometry">
            <mxPoint x="478.9295774647886" y="385.192513368984" as="sourcePoint" />
            <mxPoint x="481.3781148429035" y="198.1390374331551" as="targetPoint" />
          </mxGeometry>
        </mxCell>
        <mxCell id="orQYZJB-zxShpe2GoF-T-51" value="" style="endArrow=none;html=1;rounded=0;fontSize=12;startSize=8;endSize=8;curved=1;" edge="1" parent="1" source="orQYZJB-zxShpe2GoF-T-57">
          <mxGeometry width="50" height="50" relative="1" as="geometry">
            <mxPoint x="110.42470205850475" y="364.096256684492" as="sourcePoint" />
            <mxPoint x="376.0910075839653" y="368.31550802139043" as="targetPoint" />
          </mxGeometry>
        </mxCell>
        <mxCell id="orQYZJB-zxShpe2GoF-T-52" value="" style="endArrow=none;html=1;rounded=0;fontSize=12;startSize=8;endSize=8;curved=1;" edge="1" parent="1">
          <mxGeometry width="50" height="50" relative="1" as="geometry">
            <mxPoint x="155.72264355362938" y="606.0000000000001" as="sourcePoint" />
            <mxPoint x="373.6424702058504" y="606.0000000000001" as="targetPoint" />
          </mxGeometry>
        </mxCell>
        <mxCell id="orQYZJB-zxShpe2GoF-T-54" value="" style="endArrow=none;html=1;rounded=0;fontSize=12;startSize=8;endSize=8;curved=1;" edge="1" parent="1">
          <mxGeometry width="50" height="50" relative="1" as="geometry">
            <mxPoint x="156.94691224268695" y="604.5935828877006" as="sourcePoint" />
            <mxPoint x="156.94691224268695" y="364.096256684492" as="targetPoint" />
          </mxGeometry>
        </mxCell>
        <mxCell id="orQYZJB-zxShpe2GoF-T-55" value="rst" style="text;html=1;strokeColor=none;fillColor=none;align=center;verticalAlign=middle;whiteSpace=wrap;rounded=0;fontSize=16;" vertex="1" parent="1">
          <mxGeometry x="23.501625135427958" y="340.1871657754011" width="73.45612134344528" height="42.19251336898397" as="geometry" />
        </mxCell>
        <mxCell id="orQYZJB-zxShpe2GoF-T-56" value="clk" style="text;html=1;strokeColor=none;fillColor=none;align=center;verticalAlign=middle;whiteSpace=wrap;rounded=0;fontSize=16;" vertex="1" parent="1">
          <mxGeometry x="23.501625135427958" y="254.3957219251337" width="73.45612134344528" height="42.19251336898397" as="geometry" />
        </mxCell>
        <mxCell id="orQYZJB-zxShpe2GoF-T-58" value="" style="endArrow=none;html=1;rounded=0;fontSize=12;startSize=8;endSize=8;curved=1;" edge="1" parent="1" target="orQYZJB-zxShpe2GoF-T-57">
          <mxGeometry width="50" height="50" relative="1" as="geometry">
            <mxPoint x="106" y="364" as="sourcePoint" />
            <mxPoint x="372.4182015167929" y="364.096256684492" as="targetPoint" />
          </mxGeometry>
        </mxCell>
        <mxCell id="orQYZJB-zxShpe2GoF-T-57" value="" style="shape=waypoint;sketch=0;fillStyle=solid;size=6;pointerEvents=1;points=[];fillColor=none;resizable=0;rotatable=0;perimeter=centerPerimeter;snapToPoint=1;fontSize=16;" vertex="1" parent="1">
          <mxGeometry x="144.09209100758392" y="354.2513368983957" width="20" height="20" as="geometry" />
        </mxCell>
        <mxCell id="orQYZJB-zxShpe2GoF-T-60" value="" style="shape=waypoint;sketch=0;fillStyle=solid;size=6;pointerEvents=1;points=[];fillColor=none;resizable=0;rotatable=0;perimeter=centerPerimeter;snapToPoint=1;fontSize=16;" vertex="1" parent="1">
          <mxGeometry x="210.8147345612133" y="261.4278074866311" width="20" height="20" as="geometry" />
        </mxCell>
        <mxCell id="orQYZJB-zxShpe2GoF-T-61" value="| in" style="text;html=1;strokeColor=none;fillColor=none;align=center;verticalAlign=middle;whiteSpace=wrap;rounded=0;fontSize=16;" vertex="1" parent="1">
          <mxGeometry x="29.622968580715053" y="158.75935828877004" width="73.45612134344528" height="42.19251336898397" as="geometry" />
        </mxCell>
        <mxCell id="orQYZJB-zxShpe2GoF-T-63" value="&lt;font style=&quot;font-size: 11px;&quot;&gt;delay[1]&lt;/font&gt;" style="text;html=1;strokeColor=none;fillColor=none;align=center;verticalAlign=middle;whiteSpace=wrap;rounded=0;fontSize=16;" vertex="1" parent="1">
          <mxGeometry x="428.7345612134344" y="399.25668449197866" width="73.45612134344528" height="42.19251336898397" as="geometry" />
        </mxCell>
        <mxCell id="orQYZJB-zxShpe2GoF-T-65" value="&lt;font style=&quot;font-size: 12px;&quot;&gt;strobe&lt;/font&gt;" style="text;html=1;strokeColor=none;fillColor=none;align=center;verticalAlign=middle;whiteSpace=wrap;rounded=0;fontSize=16;" vertex="1" parent="1">
          <mxGeometry x="580.5438786565546" y="411.9144385026739" width="73.45612134344528" height="42.19251336898397" as="geometry" />
        </mxCell>
        <mxCell id="orQYZJB-zxShpe2GoF-T-66" value="&lt;span style=&quot;font-size: 12px;&quot;&gt;delay[0]&lt;/span&gt;" style="text;html=1;strokeColor=none;fillColor=none;align=center;verticalAlign=middle;whiteSpace=wrap;rounded=0;fontSize=16;" vertex="1" parent="1">
          <mxGeometry x="418.9404117009751" y="167.19786096256684" width="73.45612134344528" height="33.754010695187176" as="geometry" />
        </mxCell>
        <mxCell id="orQYZJB-zxShpe2GoF-T-73" style="edgeStyle=none;curved=1;rounded=0;orthogonalLoop=1;jettySize=auto;html=1;exitX=0;exitY=0.5;exitDx=0;exitDy=0;fontSize=12;startSize=8;endSize=8;entryX=0;entryY=0.5;entryDx=0;entryDy=0;" edge="1" parent="1" target="orQYZJB-zxShpe2GoF-T-67">
          <mxGeometry relative="1" as="geometry">
            <mxPoint x="-394.46369783643263" y="199.54545454545456" as="sourcePoint" />
          </mxGeometry>
        </mxCell>
        <mxCell id="orQYZJB-zxShpe2GoF-T-67" value="&lt;div style=&quot;font-size: 15px;&quot;&gt;&lt;font style=&quot;font-size: 15px;&quot;&gt;&amp;nbsp; assign out[0] = (in[1] | in[3] | in[5] | in[7] | in[9] | in[11] | in[13] | in[15] | in[17] | in[19]);&lt;/font&gt;&lt;/div&gt;&lt;div style=&quot;font-size: 15px;&quot;&gt;&lt;font style=&quot;font-size: 15px;&quot;&gt;&amp;nbsp; assign out[1] = (in[2] | in[3] | in[6] | in[7] | in[10] | in[11] | in[14] | in[15] | in[18] | in[19]);&lt;/font&gt;&lt;/div&gt;&lt;div style=&quot;font-size: 15px;&quot;&gt;&lt;font style=&quot;font-size: 15px;&quot;&gt;&amp;nbsp; assign out[2] = (in[4] | in[5] | in[6] | in[7] | in[12] | in[13] | in[14] | in[15]);&lt;/font&gt;&lt;/div&gt;&lt;div style=&quot;font-size: 15px;&quot;&gt;&lt;font style=&quot;font-size: 15px;&quot;&gt;&amp;nbsp; assign out[3] = (in[8] | in[9] | in[10] | in[11] | in[12] | in[13] | in[14] | in[15]);&lt;/font&gt;&lt;/div&gt;&lt;div style=&quot;font-size: 15px;&quot;&gt;&lt;font style=&quot;font-size: 15px;&quot;&gt;&amp;nbsp; assign out[4] = (in[16] | in[17] | in[18] | in[19]);&lt;/font&gt;&lt;/div&gt;" style="rounded=0;whiteSpace=wrap;html=1;fontSize=16;" vertex="1" parent="1">
          <mxGeometry x="-229.92199349945832" y="80" width="259.54496208017326" height="239.09090909090915" as="geometry" />
        </mxCell>
        <mxCell id="orQYZJB-zxShpe2GoF-T-40" style="edgeStyle=none;curved=1;rounded=0;orthogonalLoop=1;jettySize=auto;html=1;fontSize=12;startSize=8;endSize=8;entryX=0;entryY=0.3;entryDx=0;entryDy=0;entryPerimeter=0;exitX=1;exitY=0.5;exitDx=0;exitDy=0;" edge="1" parent="1" source="orQYZJB-zxShpe2GoF-T-67" target="orQYZJB-zxShpe2GoF-T-26">
          <mxGeometry relative="1" as="geometry">
            <mxPoint x="47.98699891657634" y="216.42245989304814" as="sourcePoint" />
          </mxGeometry>
        </mxCell>
        <mxCell id="orQYZJB-zxShpe2GoF-T-74" value="in" style="text;html=1;strokeColor=none;fillColor=none;align=center;verticalAlign=middle;whiteSpace=wrap;rounded=0;fontSize=16;" vertex="1" parent="1">
          <mxGeometry x="-476" y="178.44919786096258" width="73.45612134344528" height="42.19251336898397" as="geometry" />
        </mxCell>
        <mxCell id="orQYZJB-zxShpe2GoF-T-76" value="" style="endArrow=none;html=1;rounded=0;fontSize=12;startSize=8;endSize=8;curved=1;" edge="1" parent="1">
          <mxGeometry width="50" height="50" relative="1" as="geometry">
            <mxPoint x="-340.1061755146262" y="227.67379679144386" as="sourcePoint" />
            <mxPoint x="-300.92957746478874" y="172.8235294117647" as="targetPoint" />
          </mxGeometry>
        </mxCell>
        <mxCell id="orQYZJB-zxShpe2GoF-T-77" value="&lt;font style=&quot;font-size: 13px;&quot;&gt;20&lt;/font&gt;" style="text;html=1;strokeColor=none;fillColor=none;align=center;verticalAlign=middle;whiteSpace=wrap;rounded=0;fontSize=16;" vertex="1" parent="1">
          <mxGeometry x="-365.8158179848321" y="230.4866310160428" width="73.45612134344528" height="42.19251336898397" as="geometry" />
        </mxCell>
        <mxCell id="orQYZJB-zxShpe2GoF-T-78" value="" style="shape=umlDestroy;whiteSpace=wrap;html=1;strokeWidth=3;targetShapes=umlLifeline;fontSize=16;" vertex="1" parent="1">
          <mxGeometry x="444.0379198266522" y="265.6470588235294" width="15.303358613217767" height="19.689839572192515" as="geometry" />
        </mxCell>
        <mxCell id="orQYZJB-zxShpe2GoF-T-79" value="" style="shape=umlDestroy;whiteSpace=wrap;html=1;strokeWidth=3;targetShapes=umlLifeline;fontSize=16;" vertex="1" parent="1">
          <mxGeometry x="444.0379198266522" y="501.92513368983964" width="15.303358613217767" height="19.689839572192515" as="geometry" />
        </mxCell>
      </root>
    </mxGraphModel>
  </diagram>
  <diagram id="eqfyZoDokB0LB5MUFwm9" name="prienc8to3">
    <mxGraphModel dx="1344" dy="-588" grid="0" gridSize="10" guides="1" tooltips="1" connect="1" arrows="1" fold="1" page="0" pageScale="1" pageWidth="850" pageHeight="1100" math="0" shadow="0">
      <root>
        <mxCell id="0" />
        <mxCell id="1" parent="0" />
        <mxCell id="DZW2LzfuItbdbR76a_17-2" value="prienc8to3" style="whiteSpace=wrap;html=1;aspect=fixed;fontSize=16;" vertex="1" parent="1">
          <mxGeometry x="-735" y="1335" width="80" height="80" as="geometry" />
        </mxCell>
        <mxCell id="v8ss-Yghr8Zp_EM2ytE8-1" style="edgeStyle=none;curved=1;rounded=0;orthogonalLoop=1;jettySize=auto;html=1;fontSize=12;startSize=8;endSize=8;entryX=0;entryY=0.5;entryDx=0;entryDy=0;" edge="1" parent="1" target="DZW2LzfuItbdbR76a_17-3">
          <mxGeometry relative="1" as="geometry">
            <mxPoint x="-703" y="1557" as="sourcePoint" />
          </mxGeometry>
        </mxCell>
        <mxCell id="v8ss-Yghr8Zp_EM2ytE8-2" style="edgeStyle=none;curved=1;rounded=0;orthogonalLoop=1;jettySize=auto;html=1;exitX=1;exitY=0.5;exitDx=0;exitDy=0;fontSize=12;startSize=8;endSize=8;" edge="1" parent="1" source="DZW2LzfuItbdbR76a_17-3">
          <mxGeometry relative="1" as="geometry">
            <mxPoint x="-178" y="1557" as="targetPoint" />
          </mxGeometry>
        </mxCell>
        <mxCell id="DZW2LzfuItbdbR76a_17-3" value="&lt;pre style=&quot;text-align: start; font-size: 11px;&quot;&gt;&lt;code&gt;assign out = in[7] == 1 ? 3&#39;b111 :&lt;br&gt;               in[6] == 1 ? 3&#39;b110 :&lt;br&gt;               in[5] == 1 ? 3&#39;b101 :&lt;br&gt;               in[4] == 1 ? 3&#39;b100 :&lt;br&gt;               in[3] == 1 ? 3&#39;b011 :&lt;br&gt;               in[2] == 1 ? 3&#39;b010 :&lt;br&gt;               in[1] == 1 ? 3&#39;b001 :&lt;br&gt;               in[0] == 1 ? 3&#39;b000 :&lt;br&gt;                           3&#39;b000; &lt;/code&gt;&lt;/pre&gt;" style="whiteSpace=wrap;html=1;aspect=fixed;fontSize=16;" vertex="1" parent="1">
          <mxGeometry x="-557" y="1438" width="237" height="237" as="geometry" />
        </mxCell>
        <mxCell id="v8ss-Yghr8Zp_EM2ytE8-3" value="in" style="text;html=1;strokeColor=none;fillColor=none;align=center;verticalAlign=middle;whiteSpace=wrap;rounded=0;fontSize=16;" vertex="1" parent="1">
          <mxGeometry x="-748" y="1541.5" width="60" height="30" as="geometry" />
        </mxCell>
        <mxCell id="v8ss-Yghr8Zp_EM2ytE8-6" value="out" style="text;html=1;strokeColor=none;fillColor=none;align=center;verticalAlign=middle;whiteSpace=wrap;rounded=0;fontSize=16;" vertex="1" parent="1">
          <mxGeometry x="-177" y="1541.5" width="60" height="30" as="geometry" />
        </mxCell>
        <mxCell id="v8ss-Yghr8Zp_EM2ytE8-7" value="" style="endArrow=none;html=1;rounded=0;fontSize=12;startSize=8;endSize=8;curved=1;" edge="1" parent="1">
          <mxGeometry width="50" height="50" relative="1" as="geometry">
            <mxPoint x="-265" y="1571.5" as="sourcePoint" />
            <mxPoint x="-241" y="1542" as="targetPoint" />
          </mxGeometry>
        </mxCell>
        <mxCell id="v8ss-Yghr8Zp_EM2ytE8-12" value="" style="endArrow=none;html=1;rounded=0;fontSize=12;startSize=8;endSize=8;curved=1;" edge="1" parent="1">
          <mxGeometry width="50" height="50" relative="1" as="geometry">
            <mxPoint x="-651" y="1571.5" as="sourcePoint" />
            <mxPoint x="-625" y="1543.5" as="targetPoint" />
          </mxGeometry>
        </mxCell>
        <mxCell id="v8ss-Yghr8Zp_EM2ytE8-13" value="8" style="text;html=1;strokeColor=none;fillColor=none;align=center;verticalAlign=middle;whiteSpace=wrap;rounded=0;fontSize=16;" vertex="1" parent="1">
          <mxGeometry x="-679" y="1569" width="60" height="30" as="geometry" />
        </mxCell>
        <mxCell id="v8ss-Yghr8Zp_EM2ytE8-14" value="3" style="text;html=1;strokeColor=none;fillColor=none;align=center;verticalAlign=middle;whiteSpace=wrap;rounded=0;fontSize=16;" vertex="1" parent="1">
          <mxGeometry x="-294" y="1571.5" width="60" height="30" as="geometry" />
        </mxCell>
      </root>
    </mxGraphModel>
  </diagram>
  <diagram id="OQlodY2pG6clUUfyFKE1" name="sequencer">
    <mxGraphModel dx="608" dy="1084" grid="0" gridSize="10" guides="1" tooltips="1" connect="1" arrows="1" fold="1" page="0" pageScale="1" pageWidth="850" pageHeight="1100" math="0" shadow="0">
      <root>
        <mxCell id="0" />
        <mxCell id="1" parent="0" />
        <mxCell id="iy3LjIYh_g5ErTCjmbiO-1" value="sequencer" style="whiteSpace=wrap;html=1;aspect=fixed;fontSize=16;" vertex="1" parent="1">
          <mxGeometry x="55" y="-199" width="105" height="105" as="geometry" />
        </mxCell>
        <mxCell id="BozNVApcZ-14nmaShgJ--6" style="edgeStyle=none;curved=1;rounded=0;orthogonalLoop=1;jettySize=auto;html=1;exitX=1;exitY=0.3;exitDx=0;exitDy=0;exitPerimeter=0;entryX=0.004;entryY=0.168;entryDx=0;entryDy=0;fontSize=12;startSize=8;endSize=8;entryPerimeter=0;" edge="1" parent="1" source="BozNVApcZ-14nmaShgJ--2" target="BozNVApcZ-14nmaShgJ--5">
          <mxGeometry relative="1" as="geometry" />
        </mxCell>
        <mxCell id="BozNVApcZ-14nmaShgJ--8" style="edgeStyle=none;curved=1;rounded=0;orthogonalLoop=1;jettySize=auto;html=1;exitX=0;exitY=0.3;exitDx=0;exitDy=0;exitPerimeter=0;fontSize=12;startSize=8;endSize=8;entryX=0;entryY=0.3;entryDx=0;entryDy=0;entryPerimeter=0;" edge="1" parent="1" target="BozNVApcZ-14nmaShgJ--2">
          <mxGeometry relative="1" as="geometry">
            <mxPoint x="180.71426827566972" y="68.57142857142867" as="sourcePoint" />
          </mxGeometry>
        </mxCell>
        <mxCell id="BozNVApcZ-14nmaShgJ--18" style="edgeStyle=none;curved=1;rounded=0;orthogonalLoop=1;jettySize=auto;html=1;exitX=0.5;exitY=1;exitDx=0;exitDy=0;exitPerimeter=0;fontSize=12;startSize=8;endSize=8;entryX=0.5;entryY=1;entryDx=0;entryDy=0;entryPerimeter=0;" edge="1" parent="1" target="BozNVApcZ-14nmaShgJ--2">
          <mxGeometry relative="1" as="geometry">
            <mxPoint x="341.6190476190476" y="181.28572591145826" as="sourcePoint" />
          </mxGeometry>
        </mxCell>
        <mxCell id="BozNVApcZ-14nmaShgJ--20" style="edgeStyle=none;curved=1;rounded=0;orthogonalLoop=1;jettySize=auto;html=1;fontSize=12;startSize=8;endSize=8;entryX=0;entryY=0.7;entryDx=0;entryDy=0;entryPerimeter=0;" edge="1" parent="1" target="BozNVApcZ-14nmaShgJ--2">
          <mxGeometry relative="1" as="geometry">
            <mxPoint x="172" y="130" as="sourcePoint" />
          </mxGeometry>
        </mxCell>
        <mxCell id="BozNVApcZ-14nmaShgJ--2" value="rst" style="verticalLabelPosition=bottom;shadow=0;dashed=0;align=center;html=1;verticalAlign=top;shape=stencil(rVXRboIwFP0aHmcKDYqPC5P3uf1AwaqNpSWlQ/37tRSJRdshLEGSnovnnHt7exvAtD6iCgcRQHWFCxnAjyCKGiQIyqmCIxU5GjAEwKwZKrGB1A98X9u/b7/UK6Okessor8yHtRT8hM9kJzsKwo5YEGmiZ4sWbgLwrlD9wLTgjCk3hLPaitzFFTkiTA79aOZKiZRYYmHQzvbFWl271QKadRBlryhtJiitJil9jlAK/yWn7ZicFrGlFT5XgqlCXJsI0xwVp4PgP2z31J/Qjdj3XQKsflnahgZVDoHHkEMWpnsusMfPnlBqetlT1ArpLn8I3MIlb7CrNaDDtM1ACcPOvMdR+Eys5psYR2GbSOaXoh9MM2qRzM9kUIxl/HomcIoL/5aMcmEnEtsU6wkuBhT9DrkOj8Id50ddUH+dPIkvelwgSg7M6BWY6fl1u4Ss8dbcfZdzKXlpzZOB82TtmScPY6NFzYXaAr8=);fontSize=16;" vertex="1" parent="1">
          <mxGeometry x="236" y="22" width="211" height="153.68" as="geometry" />
        </mxCell>
        <mxCell id="BozNVApcZ-14nmaShgJ--4" value="seq_out" style="text;html=1;strokeColor=none;fillColor=none;align=center;verticalAlign=middle;whiteSpace=wrap;rounded=0;fontSize=16;" vertex="1" parent="1">
          <mxGeometry x="311.5" y="83.84" width="60" height="30" as="geometry" />
        </mxCell>
        <mxCell id="BozNVApcZ-14nmaShgJ--16" style="edgeStyle=none;curved=1;rounded=0;orthogonalLoop=1;jettySize=auto;html=1;fontSize=12;startSize=8;endSize=8;entryX=1;entryY=0.25;entryDx=0;entryDy=0;" edge="1" parent="1" target="BozNVApcZ-14nmaShgJ--5">
          <mxGeometry relative="1" as="geometry">
            <mxPoint x="886" y="87" as="sourcePoint" />
          </mxGeometry>
        </mxCell>
        <mxCell id="BozNVApcZ-14nmaShgJ--5" value="if (srst) begin&lt;br&gt;&lt;span style=&quot;white-space: pre;&quot;&gt;	&lt;/span&gt;" style="rounded=0;whiteSpace=wrap;html=1;fontSize=16;align=left;" vertex="1" parent="1">
          <mxGeometry x="554" y="35" width="271" height="208" as="geometry" />
        </mxCell>
        <mxCell id="BozNVApcZ-14nmaShgJ--14" value="" style="endArrow=none;html=1;rounded=0;fontSize=12;startSize=8;endSize=8;curved=1;" edge="1" parent="1">
          <mxGeometry width="50" height="50" relative="1" as="geometry">
            <mxPoint x="181" y="71" as="sourcePoint" />
            <mxPoint x="181" y="-21" as="targetPoint" />
          </mxGeometry>
        </mxCell>
        <mxCell id="BozNVApcZ-14nmaShgJ--15" value="" style="endArrow=none;html=1;rounded=0;fontSize=12;startSize=8;endSize=8;curved=1;" edge="1" parent="1">
          <mxGeometry width="50" height="50" relative="1" as="geometry">
            <mxPoint x="182" y="-21" as="sourcePoint" />
            <mxPoint x="888.800048828125" y="-21" as="targetPoint" />
          </mxGeometry>
        </mxCell>
        <mxCell id="BozNVApcZ-14nmaShgJ--17" value="" style="endArrow=none;html=1;rounded=0;fontSize=12;startSize=8;endSize=8;curved=1;" edge="1" parent="1">
          <mxGeometry width="50" height="50" relative="1" as="geometry">
            <mxPoint x="887" y="90" as="sourcePoint" />
            <mxPoint x="887" y="-22" as="targetPoint" />
          </mxGeometry>
        </mxCell>
        <mxCell id="BozNVApcZ-14nmaShgJ--21" value="clk" style="text;html=1;strokeColor=none;fillColor=none;align=center;verticalAlign=middle;whiteSpace=wrap;rounded=0;fontSize=16;" vertex="1" parent="1">
          <mxGeometry x="123" y="113.84" width="60" height="30" as="geometry" />
        </mxCell>
      </root>
    </mxGraphModel>
  </diagram>
  <diagram id="rDjq0GkuQM2fVCpF1lQS" name="sequence_editor">
    <mxGraphModel dx="517" dy="581" grid="0" gridSize="10" guides="1" tooltips="1" connect="1" arrows="1" fold="1" page="0" pageScale="1" pageWidth="850" pageHeight="1100" math="0" shadow="0">
      <root>
        <mxCell id="0" />
        <mxCell id="1" parent="0" />
      </root>
    </mxGraphModel>
  </diagram>
  <diagram id="3K0G3vKbBH7wtxEbFcBX" name="pwm">
    <mxGraphModel dx="517" dy="581" grid="0" gridSize="10" guides="1" tooltips="1" connect="1" arrows="1" fold="1" page="0" pageScale="1" pageWidth="850" pageHeight="1100" math="0" shadow="0">
      <root>
        <mxCell id="0" />
        <mxCell id="1" parent="0" />
      </root>
    </mxGraphModel>
  </diagram>
  <diagram id="-dfPj-cBvqlqj_TABgBP" name="sample">
    <mxGraphModel dx="517" dy="581" grid="0" gridSize="10" guides="1" tooltips="1" connect="1" arrows="1" fold="1" page="0" pageScale="1" pageWidth="850" pageHeight="1100" math="0" shadow="0">
      <root>
        <mxCell id="0" />
        <mxCell id="1" parent="0" />
      </root>
    </mxGraphModel>
  </diagram>
  <diagram id="G11xQR2_RFf0vRa33jWF" name="controller">
    <mxGraphModel dx="517" dy="581" grid="0" gridSize="10" guides="1" tooltips="1" connect="1" arrows="1" fold="1" page="0" pageScale="1" pageWidth="850" pageHeight="1100" math="0" shadow="0">
      <root>
        <mxCell id="0" />
        <mxCell id="1" parent="0" />
      </root>
    </mxGraphModel>
  </diagram>
</mxfile>
